# xmcd CD database file
# Copyright (C) 1993-1998 Ti Kan
# 
# Track frame offsets:
#     225
#     11047
#     27497
#     45204
#     59323
#     76729
#     92532
#     103869
#     121051
#     138270
# 
# Disc length: 2106 seconds
# 
# Revision: 1
# Processed by: cddbd v1.4b41PL1 Copyright (c) Steve Scherf et al.
# Submitted via: DiscPlay 4.0.3
# 
DISCID=7108370a
DTITLE=various DS1 - Dog Star Music Compilation #1
DYEAR=1900
DGENRE=
TTITLE0=Down South - Jim Stafford
TTITLE1=We'll Go Dancing - Mak Taylor
TTITLE2=MC&W  -  MC&W
TTITLE3=I Can't Read Your Mind - Phil Halliday
TTITLE4=Two Step Texas - Jack Sedore
TTITLE5=No PLace To Hide - Steve Vandekemp
TTITLE6=Just Another day - Gary Callahan
TTITLE7=Where Do I Go From Here - Sherril Somerton
TTITLE8=Roses For A Lady - Claude and The Beckeye Boys
TTITLE9=In My Life - Diana Jade
EXTD=
EXTT0=
EXTT1=
EXTT2=
EXTT3=
EXTT4=
EXTT5=
EXTT6=
EXTT7=
EXTT8=
EXTT9=
PLAYORDER=
